<svg viewBox="0 0 563.76 409.06" xmlns="http://www.w3.org/2000/svg"><g transform="translate(-64.98 -96.64)"><g fill="#009dcc"><path d="m220.63 437.7c-3.23 4.19-8.11 5.83-13.3 5.83s-10.09-1.64-13.3-5.83-3.63-11.26-3.63-18.81.38-13.38 3.63-17.6 8.11-5.82 13.3-5.82 10.07 1.62 13.3 5.82 3.63 10 3.63 17.6-.39 14.59-3.63 18.81m7.37-43.35c-5.7-6.83-13.92-8.61-20.65-8.62s-15 1.79-20.66 8.62-6.5 15.78-6.5 24.54.82 18.95 6.5 25.76 13.93 8.62 20.66 8.61 14.95-1.79 20.65-8.61 6.5-16.48 6.5-25.76-.82-17.74-6.5-24.54"/><path d="m290.65 392.35a5 5 0 1 0 -9.91 0v47.89a2.24 2.24 0 0 1 -1.25 1.94c-.65.27-3.39 1.37-12.75 1.37a15.75 15.75 0 0 1 -12.74-6.07c-3.07-4.18-3.43-11.44-3.43-18.89v-26.24a5 5 0 1 0 -9.91 0v26.22c0 9.17.56 19 6.36 26.22 5.06 6.3 13.53 8.51 19.72 8.51 3.93 0 12.52.28 20.26-2.69 2.13-.73 3.65-3.58 3.65-6z"/><path d="m462.64 392.35a5 5 0 1 0 -9.92 0v47.89a2.26 2.26 0 0 1 -1.25 1.94c-.64.27-3.39 1.37-12.75 1.37a15.73 15.73 0 0 1 -12.72-6.07c-3.08-4.18-3.45-11.44-3.45-18.89v-26.24a5 5 0 1 0 -9.92 0v26.22c0 9.17.57 19 6.36 26.22 5.05 6.3 13.53 8.51 19.72 8.51 3.93 0 12.51.28 20.26-2.69 2.13-.73 3.66-3.58 3.66-6z"/><path d="m394.74 432.11a10.43 10.43 0 0 1 -3.2 7.78c-2.08 2-6.72 3.65-11.91 3.65s-10.07-1.53-13.29-5.67-3.64-10-3.64-17.48.39-15.14 3.64-19.31 8.21-5.62 13.29-5.62a44.17 44.17 0 0 1 13.79 2.54 2.05 2.05 0 0 1 1.32 1.92zm10.2-37.1a5.52 5.52 0 0 0 -3.13-5c-8.38-3.71-17.88-4.25-22.18-4.25-6.54 0-14.95 1.75-20.64 8.49s-6.51 17-6.51 26.15.82 17.6 6.52 24.32 13.9 8.55 20.64 8.55c6.22 0 13.07-2.86 15.24-5.29v8.76c0 4.71-1.09 8.4-3.29 11s-5.26 3.9-9.17 3.9a32.5 32.5 0 0 1 -8-1 59.29 59.29 0 0 1 -8.81-3.69 5 5 0 0 0 -5.94 2.05 5.16 5.16 0 0 0 1.67 6.77 37.86 37.86 0 0 0 10.5 4.35 41.56 41.56 0 0 0 10.53 1.41 23.51 23.51 0 0 0 9.8-1.89 19.81 19.81 0 0 0 7.06-5.24 22.46 22.46 0 0 0 4.24-7.9 32.59 32.59 0 0 0 1.43-9.74z"/><path d="m564.59 399.36a4.94 4.94 0 0 0 1.1.13 4.53 4.53 0 0 0 4.46-4.59v-.17a6.13 6.13 0 0 0 -2.66-4.78c-4.32-3.07-10.9-4.22-16.63-4.22s-11.82 1.49-15.59 4.43-5.75 7.18-5.75 12.47c0 9.73 7 16.79 20.79 19.72 6.09 1.32 12.73 4.53 12.73 10.11a9.69 9.69 0 0 1 -3.52 7.53c-3.56 2.65-8.7 3.18-11.22 3.2a26.81 26.81 0 0 1 -12.95-3.25c-.19-.14-.4-.24-.62-.37a4.67 4.67 0 0 0 -2.28-.6 4.86 4.86 0 0 0 -4.78 4.93 5 5 0 0 0 1 3.06 5.56 5.56 0 0 0 1.48 1.42c6 4.24 14.44 4.88 18.29 4.88a36 36 0 0 0 11.08-2 20.86 20.86 0 0 0 7.22-3.88 18.21 18.21 0 0 0 4.71-6.13 22.79 22.79 0 0 0 1.93-8.77c0-13-11.26-18.19-21.09-20.16-8.35-1.77-12.58-5.46-12.58-9.67a5.64 5.64 0 0 1 .87-3.15 6.76 6.76 0 0 1 2.29-2.13 11 11 0 0 1 3.27-1.18 23.64 23.64 0 0 1 4.69-.38 35.05 35.05 0 0 1 11.43 2.65 12 12 0 0 0 2.3.92"/><path d="m159.44 438c-3.22 4.13-8.22 5.6-13.3 5.6a43.9 43.9 0 0 1 -13.88-2.6 1.83 1.83 0 0 1 -1.26-1.7v-32.46a10.39 10.39 0 0 1 3.19-7.78c2.09-2 6.72-3.58 11.91-3.58s10.08 1.46 13.3 5.6 3.63 11 3.63 18.42-.38 14.28-3.63 18.45m7.35-43.72c-5.69-6.73-13.9-8.5-20.65-8.5-6.21 0-13.06 2.8-15.23 5.23v-30.55a5 5 0 1 0 -10.06 0v83.41a5.8 5.8 0 0 0 3.6 5.41c8.26 3.51 17.48 4 21.7 4 6.54 0 15-1.72 20.65-8.45s6.5-16.12 6.5-25.3-.81-18.55-6.5-25.27"/><path d="m325.83 435.75a1.68 1.68 0 0 1 -1.51 1c-.78 0-1.34-.84-1.55-1.14-1.58-2.32-13.89-37.43-16.57-45a4.87 4.87 0 0 0 -6.27-3 5.07 5.07 0 0 0 -2.93 6.39l16 43.66c1.87 5.17 4.58 8.1 8.55 9.56l-9.73 26.5a5.1 5.1 0 0 0 2.86 6.53 4.87 4.87 0 0 0 6.34-2.94l30.72-83.31a5.1 5.1 0 0 0 -2.83-6.46 4.87 4.87 0 0 0 -6.31 2.93z"/><path d="m481 411.83c0-1.09-.15-8.68 5.9-13.33a16.08 16.08 0 0 1 10.19-3c2.46 0 7.12-.09 11.22 3.1 6 4.72 6.1 12.2 6.08 13.26zm37.22-17.6c-7.13-8.59-18.59-8.51-20.94-8.5-2.17 0-13.5.07-20.36 8.5a27.41 27.41 0 0 0 -5.19 11.7 58.07 58.07 0 0 0 -1.21 13.52c0 8.64.72 18.59 6.4 25.31s13.92 8.49 20.66 8.49c7.43 0 15.52-.63 21.47-4.85a6.1 6.1 0 0 0 2.35-3.09 4.79 4.79 0 0 0 -4.32-6.45 5 5 0 0 0 -1.68.33 15.62 15.62 0 0 0 -1.51.81c-4.4 2.52-8.6 3.69-16.31 3.51-5.2 0-10.08-1.47-13.31-5.6-3-3.87-3.45-10-3.52-16.81h38.74a5.33 5.33 0 0 0 5.26-5.39c0-14.53-6.53-21.48-6.53-21.48"/></g><path d="m372.22 358.33c20.12 14.28 59.94-9.06 88.93-52.21s36.17-89.67 16.06-104-58.95 7.86-87.94 51-37.17 90.86-17 105.15" fill="#ea5b0f"/><path d="m322 358.33c-20.13 14.28-59.94-9.06-88.93-52.21s-36.17-89.67-16-104 58.93 7.88 87.93 51.06 37.15 90.82 17 105.15" fill="#0055a4"/><g fill="#009dcc"><path d="m439.58 166.29c0-25.1-41.4-45.45-92.47-45.45s-92.47 20.35-92.47 45.45 41.4 45.46 92.47 45.46 92.47-20.35 92.47-45.46"/><path d="m419.23 480.57h-1.18a.74.74 0 0 1 -.78-.72v-12.29h-3.86a.74.74 0 0 1 -.78-.71v-1.15a.75.75 0 0 1 .78-.71h10.47a.76.76 0 0 1 .79.71v1.15a.75.75 0 0 1 -.79.71h-3.88v12.29a.75.75 0 0 1 -.78.72"/><path d="m471.68 480.57h-9.44a.75.75 0 0 1 -.78-.72v-14.15a.75.75 0 0 1 .78-.71h1.19a.75.75 0 0 1 .78.71v12.3h7.47a.75.75 0 0 1 .78.71v1.15a.75.75 0 0 1 -.78.72"/><path d="m494.15 480.57h-9.43a.75.75 0 0 1 -.79-.72v-14.15a.75.75 0 0 1 .79-.71h9.43a.75.75 0 0 1 .78.71v1.15a.74.74 0 0 1 -.78.71h-7.48v3.9h6.25a.74.74 0 0 1 .78.7v1.09a.75.75 0 0 1 -.78.71h-6.25v4h7.48a.75.75 0 0 1 .78.71v1.15a.75.75 0 0 1 -.78.72"/><path d="m447.16 480.57h-9.44a.75.75 0 0 1 -.77-.72v-14.15a.75.75 0 0 1 .77-.71h9.44a.76.76 0 0 1 .79.71v1.15a.75.75 0 0 1 -.79.71h-7.47v3.9h6.25a.74.74 0 0 1 .78.7v1.09a.75.75 0 0 1 -.78.71h-6.25v4h7.47a.76.76 0 0 1 .79.71v1.15a.76.76 0 0 1 -.79.72"/><path d="m569.38 480.57h-1.18a.76.76 0 0 1 -.79-.72v-7.65l-3.21 7.92a.81.81 0 0 1 -.72.42h-1.18a.79.79 0 0 1 -.71-.42l-3.31-8v7.71a.76.76 0 0 1 -.78.72h-1.18a.75.75 0 0 1 -.78-.72v-14.13a.75.75 0 0 1 .78-.71h1.18a.77.77 0 0 1 .7.42l4.7 11.42 4.58-11.41a.8.8 0 0 1 .72-.43h1.18a.75.75 0 0 1 .78.71v14.15a.75.75 0 0 1 -.78.72"/><path d="m540.21 477.5a3.84 3.84 0 0 1 -4.87 0c-.89-.82-1.26-1.69-1.26-4.75s.37-3.93 1.26-4.73a3.74 3.74 0 0 1 4.87 0c.9.8 1.26 1.67 1.26 4.73s-.36 3.93-1.26 4.75m2.09-11.12a7.06 7.06 0 0 0 -9 0c-1.71 1.56-2 3.17-2 6.37s.25 4.82 2 6.37a6.9 6.9 0 0 0 9 0c1.71-1.55 2-3.15 2-6.37s-.26-4.81-2-6.37"/><path d="m519.05 475.85-1.22-.2a.78.78 0 0 0 -.85.45 3 3 0 0 1 -.94 1.43 3.63 3.63 0 0 1 -2.44.9 3.67 3.67 0 0 1 -2.44-.9c-.89-.8-1.25-1.68-1.25-4.74s.36-4 1.25-4.75a3.59 3.59 0 0 1 2.44-.92 3.55 3.55 0 0 1 2.4.88 2.94 2.94 0 0 1 .94 1.42.81.81 0 0 0 .85.46l1.22-.2a.83.83 0 0 0 .56-.35.73.73 0 0 0 .08-.64 5.17 5.17 0 0 0 -1.56-2.34 7.08 7.08 0 0 0 -9.06 0c-1.71 1.56-2 3.17-2 6.37s.25 4.86 2 6.4a7.08 7.08 0 0 0 9.06 0 5.15 5.15 0 0 0 1.56-2.33.68.68 0 0 0 -.08-.62.78.78 0 0 0 -.56-.36"/></g></g><path d="m0 0h563.76v409.06h-563.76z" fill="none"/></svg>